<svg width="45" height="11" viewBox="0 0 45 11" fill="none" xmlns="http://www.w3.org/2000/svg">
<path d="M4.368 10.14C3.556 10.14 2.87467 10.0187 2.324 9.776C1.77333 9.524 1.34867 9.202 1.05 8.81C0.760667 8.40867 0.606667 7.984 0.588 7.536C0.588 7.46133 0.616 7.396 0.672 7.34C0.737333 7.27467 0.812 7.242 0.896 7.242H1.61C1.722 7.242 1.806 7.27 1.862 7.326C1.918 7.382 1.95533 7.44733 1.974 7.522C2.02067 7.746 2.13267 7.97 2.31 8.194C2.49667 8.40867 2.75333 8.59067 3.08 8.74C3.416 8.88 3.84533 8.95 4.368 8.95C5.17067 8.95 5.75867 8.81 6.132 8.53C6.51467 8.24067 6.706 7.858 6.706 7.382C6.706 7.05533 6.60333 6.794 6.398 6.598C6.202 6.39267 5.89867 6.21067 5.488 6.052C5.07733 5.89333 4.54533 5.72067 3.892 5.534C3.21067 5.338 2.646 5.12333 2.198 4.89C1.75 4.65667 1.414 4.36733 1.19 4.022C0.975333 3.67667 0.868 3.238 0.868 2.706C0.868 2.202 1.00333 1.754 1.274 1.362C1.54467 0.960666 1.932 0.643333 2.436 0.409999C2.94933 0.176666 3.57 0.0599995 4.298 0.0599995C4.87667 0.0599995 5.38067 0.139333 5.81 0.298C6.24867 0.447333 6.61267 0.652666 6.902 0.913999C7.19133 1.166 7.41067 1.44133 7.56 1.74C7.70933 2.02933 7.78867 2.314 7.798 2.594C7.798 2.65933 7.77467 2.72467 7.728 2.79C7.68133 2.846 7.60667 2.874 7.504 2.874H6.762C6.69667 2.874 6.62667 2.85533 6.552 2.818C6.48667 2.78067 6.43533 2.71067 6.398 2.608C6.342 2.22533 6.12733 1.90333 5.754 1.642C5.38067 1.38067 4.89533 1.25 4.298 1.25C3.69133 1.25 3.19667 1.36667 2.814 1.6C2.44067 1.83333 2.254 2.19733 2.254 2.692C2.254 3.00933 2.34267 3.27533 2.52 3.49C2.69733 3.69533 2.97733 3.87733 3.36 4.036C3.74267 4.19467 4.242 4.36267 4.858 4.54C5.60467 4.74533 6.216 4.96467 6.692 5.198C7.168 5.422 7.518 5.70667 7.742 6.052C7.97533 6.388 8.092 6.822 8.092 7.354C8.092 7.942 7.938 8.446 7.63 8.866C7.322 9.27667 6.888 9.594 6.328 9.818C5.77733 10.0327 5.124 10.14 4.368 10.14ZM12.643 10.14C11.6817 10.14 10.9163 9.846 10.347 9.258C9.77765 8.66067 9.46498 7.84867 9.40898 6.822C9.39965 6.70067 9.39498 6.54667 9.39498 6.36C9.39498 6.164 9.39965 6.00533 9.40898 5.884C9.44632 5.22133 9.60032 4.64267 9.87098 4.148C10.1417 3.644 10.5103 3.25667 10.977 2.986C11.453 2.71533 12.0083 2.58 12.643 2.58C13.3523 2.58 13.945 2.72933 14.421 3.028C14.9063 3.32667 15.275 3.75133 15.527 4.302C15.779 4.85267 15.905 5.49667 15.905 6.234V6.472C15.905 6.57467 15.8723 6.654 15.807 6.71C15.751 6.766 15.6763 6.794 15.583 6.794H10.739C10.739 6.80333 10.739 6.822 10.739 6.85C10.739 6.878 10.739 6.90133 10.739 6.92C10.7577 7.30267 10.8417 7.662 10.991 7.998C11.1403 8.32467 11.355 8.59067 11.635 8.796C11.915 9.00133 12.251 9.104 12.643 9.104C12.979 9.104 13.259 9.05267 13.483 8.95C13.707 8.84733 13.889 8.73533 14.029 8.614C14.169 8.48333 14.2623 8.38533 14.309 8.32C14.393 8.19867 14.4583 8.12867 14.505 8.11C14.5517 8.082 14.6263 8.068 14.729 8.068H15.401C15.4943 8.068 15.569 8.096 15.625 8.152C15.6903 8.19867 15.7183 8.26867 15.709 8.362C15.6997 8.502 15.625 8.67467 15.485 8.88C15.345 9.076 15.1443 9.272 14.883 9.468C14.6217 9.664 14.3043 9.82733 13.931 9.958C13.5577 10.0793 13.1283 10.14 12.643 10.14ZM10.739 5.828H14.575V5.786C14.575 5.366 14.4957 4.99267 14.337 4.666C14.1877 4.33933 13.9683 4.08267 13.679 3.896C13.3897 3.7 13.0443 3.602 12.643 3.602C12.2417 3.602 11.8963 3.7 11.607 3.896C11.327 4.08267 11.1123 4.33933 10.963 4.666C10.8137 4.99267 10.739 5.366 10.739 5.786V5.828ZM19.609 10.14C19.1423 10.14 18.7176 10.0467 18.335 9.86C17.9523 9.67333 17.6443 9.42133 17.411 9.104C17.1776 8.78667 17.061 8.42733 17.061 8.026C17.061 7.382 17.3223 6.86867 17.845 6.486C18.3676 6.10333 19.049 5.85133 19.889 5.73L21.975 5.436V5.03C21.975 4.582 21.8443 4.232 21.583 3.98C21.331 3.728 20.9156 3.602 20.337 3.602C19.917 3.602 19.5763 3.686 19.315 3.854C19.063 4.022 18.8856 4.23667 18.783 4.498C18.727 4.638 18.629 4.708 18.489 4.708H17.859C17.7563 4.708 17.677 4.68 17.621 4.624C17.5743 4.55867 17.551 4.484 17.551 4.4C17.551 4.26 17.6023 4.08733 17.705 3.882C17.817 3.67667 17.985 3.476 18.209 3.28C18.433 3.084 18.7176 2.92067 19.063 2.79C19.4176 2.65 19.847 2.58 20.351 2.58C20.911 2.58 21.3823 2.65467 21.765 2.804C22.1476 2.944 22.4463 3.13533 22.661 3.378C22.885 3.62067 23.0436 3.896 23.137 4.204C23.2396 4.512 23.291 4.82467 23.291 5.142V9.678C23.291 9.77133 23.2583 9.85067 23.193 9.916C23.137 9.972 23.0623 10 22.969 10H22.325C22.2223 10 22.143 9.972 22.087 9.916C22.031 9.85067 22.003 9.77133 22.003 9.678V9.076C21.8816 9.244 21.7183 9.412 21.513 9.58C21.3076 9.73867 21.051 9.874 20.743 9.986C20.435 10.0887 20.057 10.14 19.609 10.14ZM19.903 9.09C20.2856 9.09 20.6356 9.01067 20.953 8.852C21.2703 8.684 21.5176 8.42733 21.695 8.082C21.8816 7.73667 21.975 7.30267 21.975 6.78V6.388L20.351 6.626C19.6883 6.71933 19.189 6.878 18.853 7.102C18.517 7.31667 18.349 7.592 18.349 7.928C18.349 8.18933 18.4236 8.40867 18.573 8.586C18.7316 8.754 18.9276 8.88 19.161 8.964C19.4036 9.048 19.651 9.09 19.903 9.09ZM25.6256 10C25.5322 10 25.4529 9.972 25.3876 9.916C25.3316 9.85067 25.3036 9.77133 25.3036 9.678V3.056C25.3036 2.96267 25.3316 2.88333 25.3876 2.818C25.4529 2.75267 25.5322 2.72 25.6256 2.72H26.2696C26.3629 2.72 26.4422 2.75267 26.5076 2.818C26.5729 2.88333 26.6056 2.96267 26.6056 3.056V3.672C26.7922 3.35467 27.0489 3.11667 27.3756 2.958C27.7022 2.79933 28.0942 2.72 28.5516 2.72H29.1116C29.2049 2.72 29.2796 2.75267 29.3356 2.818C29.3916 2.874 29.4196 2.94867 29.4196 3.042V3.616C29.4196 3.70933 29.3916 3.784 29.3356 3.84C29.2796 3.896 29.2049 3.924 29.1116 3.924H28.2716C27.7676 3.924 27.3709 4.07333 27.0816 4.372C26.7922 4.66133 26.6476 5.058 26.6476 5.562V9.678C26.6476 9.77133 26.6149 9.85067 26.5496 9.916C26.4842 9.972 26.4049 10 26.3116 10H25.6256ZM33.4252 10.14C32.7626 10.14 32.1886 10.014 31.7032 9.762C31.2272 9.50067 30.8586 9.132 30.5972 8.656C30.3359 8.17067 30.1959 7.592 30.1772 6.92C30.1679 6.78 30.1632 6.59333 30.1632 6.36C30.1632 6.12667 30.1679 5.94 30.1772 5.8C30.1959 5.128 30.3359 4.554 30.5972 4.078C30.8586 3.59267 31.2272 3.224 31.7032 2.972C32.1886 2.71067 32.7626 2.58 33.4252 2.58C33.9666 2.58 34.4286 2.65467 34.8112 2.804C35.2032 2.95333 35.5252 3.14467 35.7772 3.378C36.0292 3.61133 36.2159 3.86333 36.3372 4.134C36.4679 4.40467 36.5379 4.66133 36.5472 4.904C36.5566 4.99733 36.5286 5.072 36.4632 5.128C36.3979 5.184 36.3186 5.212 36.2252 5.212H35.5532C35.4599 5.212 35.3899 5.19333 35.3432 5.156C35.2966 5.10933 35.2499 5.03467 35.2032 4.932C35.0352 4.47467 34.8066 4.15267 34.5172 3.966C34.2279 3.77933 33.8686 3.686 33.4392 3.686C32.8792 3.686 32.4219 3.85867 32.0672 4.204C31.7219 4.54933 31.5352 5.10467 31.5072 5.87C31.4979 6.206 31.4979 6.53267 31.5072 6.85C31.5352 7.62467 31.7219 8.18467 32.0672 8.53C32.4219 8.866 32.8792 9.034 33.4392 9.034C33.8686 9.034 34.2279 8.94067 34.5172 8.754C34.8066 8.56733 35.0352 8.24533 35.2032 7.788C35.2499 7.68533 35.2966 7.61533 35.3432 7.578C35.3899 7.53133 35.4599 7.508 35.5532 7.508H36.2252C36.3186 7.508 36.3979 7.536 36.4632 7.592C36.5286 7.648 36.5566 7.72267 36.5472 7.816C36.5379 8.012 36.4959 8.21267 36.4212 8.418C36.3466 8.62333 36.2252 8.83333 36.0572 9.048C35.8986 9.25333 35.6979 9.44 35.4552 9.608C35.2126 9.76667 34.9186 9.89733 34.5732 10C34.2372 10.0933 33.8546 10.14 33.4252 10.14ZM38.5458 10C38.4525 10 38.3732 9.972 38.3078 9.916C38.2518 9.85067 38.2238 9.77133 38.2238 9.678V0.381999C38.2238 0.288666 38.2518 0.214 38.3078 0.158C38.3732 0.0926663 38.4525 0.0599995 38.5458 0.0599995H39.2458C39.3485 0.0599995 39.4278 0.0926663 39.4838 0.158C39.5398 0.214 39.5678 0.288666 39.5678 0.381999V3.644C39.8198 3.32667 40.1278 3.07 40.4918 2.874C40.8558 2.678 41.3178 2.58 41.8778 2.58C42.4845 2.58 42.9978 2.71533 43.4178 2.986C43.8472 3.24733 44.1692 3.616 44.3838 4.092C44.6078 4.55867 44.7198 5.10467 44.7198 5.73V9.678C44.7198 9.77133 44.6918 9.85067 44.6358 9.916C44.5798 9.972 44.5005 10 44.3978 10H43.6978C43.6045 10 43.5252 9.972 43.4598 9.916C43.4038 9.85067 43.3758 9.77133 43.3758 9.678V5.8C43.3758 5.14667 43.2172 4.638 42.8998 4.274C42.5825 3.90067 42.1158 3.714 41.4998 3.714C40.9212 3.714 40.4545 3.90067 40.0998 4.274C39.7452 4.638 39.5678 5.14667 39.5678 5.8V9.678C39.5678 9.77133 39.5398 9.85067 39.4838 9.916C39.4278 9.972 39.3485 10 39.2458 10H38.5458Z" fill="white"/>
</svg>
